<svg 
width="150"
height="50"
viewBox="-70 0 800 200"
id="Layer_1" data-name="Layer 1"
    xmlns="http://www.w3.org/2000/svg" >
    <path d="m29.79,31.43l75.32,0l0,21.4l-52,0l0,6.8l40.71,0l0,20.6l-40.72,0l0,21.51l-23.31,0l0,-70.31z"/>
  <path d="m153.12,30.43a119.27,119.27 0 0 1 16.8,1.05a57.84,57.84 0 0 1 13.5,3.55a29.09,29.09 0 0 1 10.15,6.55a27.57,27.57 0 0 1 6.15,10.2a42.83,42.83 0 0 1 2.21,14.45a46.41,46.41 0 0 1 -1.95,14.2a28.53,28.53 0 0 1 -5.61,10.16a26.26,26.26 0 0 1 -9.6,6.7a53.83,53.83 0 0 1 -13.45,3.65a122.65,122.65 0 0 1 -17.5,1.1q-24.81,0 -36.06,-9t-11.25,-28.06q0,-17.6 11.5,-26.05t35.11,-8.5zm0.9,53.2q10.59,0 16.4,-4.3t5.8,-13.1q0,-8.49 -6.1,-13t-16.4,-4.45a35.29,35.29 0 0 0 -9.51,1.15a17.37,17.37 0 0 0 -6.75,3.45a14.45,14.45 0 0 0 -3.95,5.5a19.43,19.43 0 0 0 -1.3,7.3a15.89,15.89 0 0 0 5.5,12.65q5.51,4.81 16.29,4.8l0.02,0z"/>
  <path d="m251.83,101.74q-15.69,0 -26.2,-3.1t-14.5,-10.7a41.84,41.84 0 0 1 -3.9,-14.16a235.37,235.37 0 0 1 -1,-25.45l0.1,-16.8l24.6,0l0,31.4a42.56,42.56 0 0 0 0.3,5.35a18.57,18.57 0 0 0 1.55,5.15a12.65,12.65 0 0 0 3.45,4.65a17.74,17.74 0 0 0 6.2,3.1a31.62,31.62 0 0 0 9.45,1.26a31.16,31.16 0 0 0 9.41,-1.26a16.75,16.75 0 0 0 6,-3.05a12.62,12.62 0 0 0 3.25,-4.65a18.75,18.75 0 0 0 1.45,-5.15a52.46,52.46 0 0 0 0.25,-5.4l0,-31.4l24.6,0l0,16.8a223.4,223.4 0 0 1 -0.9,25.45a41.84,41.84 0 0 1 -3.9,14.16a19.27,19.27 0 0 1 -5.95,6.75a29.34,29.34 0 0 1 -9.25,4.25a70.82,70.82 0 0 1 -11.4,2.15a128.44,128.44 0 0 1 -13.61,0.65z"/>
  <path d="m391.76,101.74l-31.76,0l-34.4,-42.31l0,42.31l-23.36,0l0,-70.21l32.51,0l33.8,41.6l0,-41.6l23.21,0l0,70.21z"/>
  <path d="m446.47,101.74l-48.31,0l0,-70l48,0a87.14,87.14 0 0 1 12.1,0.75a43.76,43.76 0 0 1 10.7,3a26.24,26.24 0 0 1 9,6a27.68,27.68 0 0 1 5.85,10.15a45.6,45.6 0 0 1 2.25,15.1a38.62,38.62 0 0 1 -2.4,14a28.23,28.23 0 0 1 -6.3,10a33.74,33.74 0 0 1 -9.21,6.4a42.61,42.61 0 0 1 -10.65,3.55a59.68,59.68 0 0 1 -11.03,1.05zm-1.6,-19.1a19.12,19.12 0 0 0 9.4,-2.16a13.45,13.45 0 0 0 5.7,-5.65a17.23,17.23 0 0 0 1.8,-8q0,-7.2 -4,-11.55t-12.85,-4.35l-23.4,0l0,31.71l23.35,0z"/>
  <path d="m490.18,31.53l77.51,0l0,19.47l-54.21,0l0,6.2l50.81,0l0,18.7l-50.81,0l0,6.3l54.21,0l0,19.51l-77.51,0l0,-70.18z"/>
  <path d="m572.89,31.53l51.61,0c1.33,0 2.6,0 3.8,0.1a45.77,45.77 0 0 1 5.05,0.65a33.53,33.53 0 0 1 5.91,1.5a27.62,27.62 0 0 1 5.65,2.9a20.29,20.29 0 0 1 5.05,4.6a22.54,22.54 0 0 1 3.4,6.75a29.65,29.65 0 0 1 1.35,9.3q0,16.6 -12.91,23.71l14.41,20.7l-26.91,-0.1l-12,-16.5l-21.1,0l0,16.6l-23.31,0l0,-70.21zm49.41,33.1q8.7,0 8.7,-6.6q0,-6 -9.1,-6l-25.7,0l0,12.6l26.1,0z"/>
  <path d="m53.1,166.4l50.9,0l0,23.31l-74.21,0l0,-70.22l23.31,0l0,46.91z"/>
  <path d="m175.52,119.69l31.51,70l-27.03,0l-5.3,-11.81l-34.7,0l-5.3,11.81l-26.8,0l31.4,-70l36.22,0zm-27.21,38l18.11,0l-9.1,-18.4l-9.01,18.4z"/>
  <path d="m301,189.71l-31.8,0l-34.37,-42.31l0,42.31l-23.3,0l0,-70.22l32.47,0l33.81,41.61l0,-41.61l23.19,0l0,70.22z"/>
  <path d="m355.85,189.71l-48.31,0l0,-70l48,0a87.29,87.29 0 0 1 12.11,0.75a43.76,43.76 0 0 1 10.7,3a26.3,26.3 0 0 1 9,6a27.73,27.73 0 0 1 5.85,10.16a45.56,45.56 0 0 1 2.25,15.1a38.53,38.53 0 0 1 -2.4,14a28.05,28.05 0 0 1 -6.3,10a33.63,33.63 0 0 1 -9.2,6.4a42.44,42.44 0 0 1 -10.66,3.56a60.56,60.56 0 0 1 -11.04,1.03zm-1.6,-19.11a19.12,19.12 0 0 0 9.4,-2.15a13.53,13.53 0 0 0 5.71,-5.65a17.23,17.23 0 0 0 1.8,-8c0,-4.8 -1.36,-8.65 -4,-11.55s-7,-4.35 -12.86,-4.35l-23.4,0l0,31.7l23.35,0z"/>
  <polygon points="400.219970703125,137.19000244140625 443.260009765625,137.19000244140625 402.67999267578125,177.20001220703125 414.530029296875,189.69000244140625 455.6300048828125,149.55999755859375 455.6300048828125,189.69000244140625 473.1300048828125,189.69000244140625 473.1300048828125,119.69000244140625 400.219970703125,119.69000244140625 400.219970703125,137.19000244140625 "/>
</svg>