<svg id="Layer_1" data-name="Layer 1" width="100" height="500" viewBox="-100 350 1500 350"
    xmlns="http://www.w3.org/2000/svg">
    <path d="M126.69,505.19H202V526.6H150v6.8H190.7V554H150v21.51h-23.3Z"/>
    <path d="M250,504.19a119.07,119.07,0,0,1,16.8,1.05,58.06,58.06,0,0,1,13.51,3.56,29.19,29.19,0,0,1,10.15,6.55,27.84,27.84,0,0,1,6.15,10.2,42.84,42.84,0,0,1,2.2,14.45,46.1,46.1,0,0,1-1.95,14.2,28.46,28.46,0,0,1-5.6,10.15,26.45,26.45,0,0,1-9.6,6.71,54.22,54.22,0,0,1-13.46,3.65,122.55,122.55,0,0,1-17.5,1.1q-24.81,0-36.06-9T203.4,538.7q0-17.61,11.51-26.05T250,504.19Zm.9,53.21q10.61,0,16.4-4.3t5.81-13.1q0-8.5-6.11-13t-16.4-4.45a35.16,35.16,0,0,0-9.5,1.15,17.16,17.16,0,0,0-6.75,3.45,14.24,14.24,0,0,0-4,5.5,19.2,19.2,0,0,0-1.3,7.3,15.86,15.86,0,0,0,5.5,12.65Q240.12,557.41,250.91,557.4Z"/>
    <path d="M348.73,575.51q-15.71,0-26.21-3.1T308,561.7a42.25,42.25,0,0,1-3.9-14.15,235.5,235.5,0,0,1-1-25.45l.1-16.81h24.61V536.7a42.67,42.67,0,0,0,.3,5.35,18.24,18.24,0,0,0,1.55,5.15,12.65,12.65,0,0,0,3.45,4.65,17.65,17.65,0,0,0,6.2,3.1,31.55,31.55,0,0,0,9.45,1.25,31.11,31.11,0,0,0,9.4-1.25,16.66,16.66,0,0,0,6-3.05,12.51,12.51,0,0,0,3.25-4.65,18.4,18.4,0,0,0,1.45-5.15,49.77,49.77,0,0,0,.25-5.4V505.29h24.61V522.1a228.35,228.35,0,0,1-.9,25.45,42.25,42.25,0,0,1-3.9,14.15,19.31,19.31,0,0,1-5.95,6.76,29.39,29.39,0,0,1-9.26,4.25,71.93,71.93,0,0,1-11.4,2.15A128.24,128.24,0,0,1,348.73,575.51Z"/>
    <path d="M488.65,575.51h-31.8L422.44,533.2v42.31h-23.3V505.29h32.5l33.81,41.61V505.29h23.2Z"/>
    <path d="M543.37,575.51H495.06v-70h48a87.24,87.24,0,0,1,12.1.75,43.76,43.76,0,0,1,10.7,3,26.32,26.32,0,0,1,9,6,27.68,27.68,0,0,1,5.85,10.15A45.6,45.6,0,0,1,583,540.5a38.53,38.53,0,0,1-2.4,14,28.05,28.05,0,0,1-6.3,10,33.87,33.87,0,0,1-9.2,6.41,42.88,42.88,0,0,1-10.65,3.55A59.84,59.84,0,0,1,543.37,575.51Zm-1.6-19.11a19.15,19.15,0,0,0,9.4-2.15,13.45,13.45,0,0,0,5.7-5.65,17.23,17.23,0,0,0,1.8-8q0-7.2-4-11.55t-12.85-4.35H518.36v31.7Z"/>
    <path d="M587.07,505.29h77.52V524.8H610.38V531h50.81v18.7H610.38V556h54.21v19.51H587.07Z"/>
    <path d="M669.79,505.29H721.4c1.33,0,2.6,0,3.8.1s2.88.29,5,.65a34.29,34.29,0,0,1,5.9,1.51,27.8,27.8,0,0,1,5.65,2.89,20.35,20.35,0,0,1,5.05,4.61,22.19,22.19,0,0,1,3.4,6.75,29.65,29.65,0,0,1,1.35,9.3q0,16.6-12.9,23.7l14.4,20.71-26.9-.1-12-16.51H693.09v16.61h-23.3ZM719.2,538.4q8.7,0,8.7-6.6,0-6-9.1-6H693.09v12.6Z"/>
    <path d="M866.77,552.2h50.91v23.31H843.47V505.29h23.3Z"/>
    <path d="M989.2,505.49l31.5,70h-27l-5.31-11.81h-34.7l-5.3,11.81H921.58l31.41-70ZM962,543.5h18.1L971,525.1Z"/>
    <path d="M1114.72,575.51h-31.81l-34.4-42.31v42.31H1025.2V505.29h32.51l33.8,41.61V505.29h23.21Z"/>
    <path d="M1169.53,575.51h-48.31v-70h48a87.14,87.14,0,0,1,12.1.75,43.76,43.76,0,0,1,10.7,3,26.32,26.32,0,0,1,9,6,27.54,27.54,0,0,1,5.85,10.15,45.33,45.33,0,0,1,2.26,15.1,38.31,38.31,0,0,1-2.41,14,28.05,28.05,0,0,1-6.3,10,33.87,33.87,0,0,1-9.2,6.41,42.61,42.61,0,0,1-10.65,3.55A59.76,59.76,0,0,1,1169.53,575.51Zm-1.6-19.11a19.15,19.15,0,0,0,9.4-2.15,13.45,13.45,0,0,0,5.7-5.65,17.23,17.23,0,0,0,1.8-8q0-7.2-4-11.55t-12.85-4.35h-23.41v31.7Z"/>
    <polygon points="759.48 522.99 802.52 522.99 761.95 563 773.79 575.49 814.9 535.37 814.9 575.49 832.39 575.49 832.39 505.49 759.48 505.49 759.48 522.99"/>
</svg>