<svg viewBox="0 0 220 220" data-name="Layer 1" id="Layer 1">
    <g class="layer">
        <title>Layer 1</title>
        <path fill="currentColor" d="m104.94,32.35l0,21.41l-51.94,0l0,6.83l40.67,0l0,20.56l-40.67,0l0,21.5l-23.27,0l0,-70.3l75.21,0z" id="svg_1"/>
        <path fill="currentColor" d="m29.73,191.65l0,-70l48,0c20.37,0 39.88,5.08 39.88,35c0,27.05 -21.56,35 -39.65,35l-48.23,0zm63.54,-34.93c0,-8.76 -4.39,-15.86 -16.89,-15.86l-23.38,0l0,31.73l23.4,0c11.31,0 16.87,-7.1 16.87,-15.87z" id="svg_2"/>
        <path fill="currentColor" d="m197.1,168.4l0,23.25l-74.17,0l0,-70.25l23.25,0l0,47l50.92,0z" id="svg_3"/>
        <polygon fill="currentColor" id="svg_4" points="124.17999267578125,49.850006103515625 167.22998046875,49.850006103515625 126.6500244140625,89.8599853515625 138.489990234375,102.3499755859375 179.5999755859375,62.220001220703125 179.5999755859375,102.3499755859375 197.0999755859375,102.3499755859375 197.0999755859375,32.350006103515625 124.17999267578125,32.350006103515625 124.17999267578125,49.850006103515625 "/>
    </g>
</svg>